<svg width="161" height="35" viewBox="0 0 161 35" fill="none" xmlns="http://www.w3.org/2000/svg">
<path d="M5.48 27L0.48 8.04H5.88L8.76 20.36L11.92 10.48V8.04H16.04L19.64 20.36L22.44 8.04H27.8L22.84 27H17.88L14.24 15.92L10.52 27H5.48ZM39.6366 27.4C36.3566 27.4 33.7566 26.5867 31.8366 24.96C29.9166 23.3067 28.9566 20.8133 28.9566 17.48C28.9566 14.4667 29.7566 12.08 31.3566 10.32C32.9832 8.53333 35.3966 7.64 38.5966 7.64C41.5299 7.64 43.7699 8.41333 45.3166 9.96C46.8899 11.48 47.6766 13.48 47.6766 15.96V19.4H33.9566C34.2499 20.92 34.9432 21.96 36.0366 22.52C37.1566 23.08 38.7299 23.36 40.7566 23.36C41.7699 23.36 42.7966 23.2667 43.8366 23.08C44.9032 22.8933 45.8099 22.6533 46.5566 22.36V26.2C45.6766 26.6 44.6499 26.8933 43.4766 27.08C42.3032 27.2933 41.0232 27.4 39.6366 27.4ZM33.9566 16.08H42.9566V15.04C42.9566 13.9467 42.6366 13.0933 41.9966 12.48C41.3566 11.84 40.2766 11.52 38.7566 11.52C36.9699 11.52 35.7166 11.88 34.9966 12.6C34.3032 13.32 33.9566 14.48 33.9566 16.08ZM62.5963 27.4C61.2629 27.4 60.1029 27.2267 59.1163 26.88C58.1296 26.5067 57.2229 25.96 56.3963 25.24L56.1163 27H51.4363V0.039999H56.8363V9.08C57.6096 8.6 58.4763 8.24 59.4362 8C60.3963 7.76 61.3963 7.64 62.4363 7.64C65.1563 7.64 67.3029 8.41333 68.8763 9.96C70.4763 11.48 71.2763 13.9467 71.2763 17.36C71.2763 20.7733 70.4896 23.3067 68.9163 24.96C67.3696 26.5867 65.2629 27.4 62.5963 27.4ZM61.0763 23.44C62.8096 23.44 64.0229 22.9333 64.7163 21.92C65.4363 20.9067 65.7963 19.3867 65.7963 17.36C65.7963 15.2533 65.4096 13.7733 64.6363 12.92C63.8896 12.04 62.6896 11.6 61.0363 11.6C60.2096 11.6 59.4229 11.72 58.6763 11.96C57.9563 12.2 57.3429 12.5467 56.8363 13V21.72C57.3696 22.28 57.9963 22.7067 58.7163 23C59.4629 23.2933 60.2496 23.44 61.0763 23.44ZM83.03 34.04C81.6167 34.04 80.1633 33.9467 78.67 33.76C77.2033 33.5733 75.9633 33.3067 74.95 32.96V28.92C76.0167 29.2667 77.27 29.5333 78.71 29.72C80.15 29.9333 81.4967 30.04 82.75 30.04C84.59 30.04 85.9233 29.9333 86.75 29.72C87.5767 29.5333 87.99 29.1867 87.99 28.68C87.99 28.2533 87.8033 27.96 87.43 27.8C87.0833 27.64 86.3367 27.56 85.19 27.56H80.03C76.6433 27.56 74.95 26.3067 74.95 23.8C74.95 23.0267 75.1633 22.32 75.59 21.68C76.0167 21.04 76.6967 20.5333 77.63 20.16C75.47 19.0667 74.39 17.2267 74.39 14.64C74.39 12.1867 75.15 10.4133 76.67 9.32C78.19 8.2 80.4433 7.64 83.43 7.64C84.0433 7.64 84.71 7.69333 85.43 7.8C86.1767 7.88 86.7367 7.96 87.11 8.04H94.23L94.11 11.44H91.11C91.9367 12.2133 92.35 13.2933 92.35 14.68C92.35 16.6267 91.7367 18.1867 90.51 19.36C89.2833 20.5067 87.47 21.08 85.07 21.08C84.6433 21.08 84.23 21.0667 83.83 21.04C83.4567 20.9867 83.07 20.9333 82.67 20.88C81.87 20.9867 81.19 21.1733 80.63 21.44C80.0967 21.7067 79.83 22.0667 79.83 22.52C79.83 23.1333 80.3767 23.44 81.47 23.44H86.83C88.75 23.44 90.23 23.88 91.27 24.76C92.31 25.6133 92.83 26.8667 92.83 28.52C92.83 30.3867 91.99 31.7733 90.31 32.68C88.63 33.5867 86.2033 34.04 83.03 34.04ZM83.47 18.04C85.07 18.04 86.1767 17.7733 86.79 17.24C87.43 16.68 87.75 15.7467 87.75 14.44C87.75 13.1333 87.43 12.1867 86.79 11.6C86.1767 11.0133 85.07 10.72 83.47 10.72C81.95 10.72 80.8567 11.0133 80.19 11.6C79.5233 12.16 79.19 13.1067 79.19 14.44C79.19 15.6667 79.4967 16.5733 80.11 17.16C80.75 17.7467 81.87 18.04 83.47 18.04ZM106.58 27.4C103.034 27.4 100.434 26.5467 98.7803 24.84C97.127 23.1067 96.3003 20.6667 96.3003 17.52C96.3003 14.3733 97.127 11.9467 98.7803 10.24C100.46 8.50667 103.06 7.64 106.58 7.64C110.127 7.64 112.727 8.50667 114.38 10.24C116.06 11.9467 116.9 14.3733 116.9 17.52C116.9 20.6667 116.074 23.1067 114.42 24.84C112.767 26.5467 110.154 27.4 106.58 27.4ZM106.58 22.8C108.314 22.8 109.554 22.4133 110.3 21.64C111.047 20.84 111.42 19.4667 111.42 17.52C111.42 15.5733 111.047 14.2133 110.3 13.44C109.554 12.64 108.314 12.24 106.58 12.24C104.874 12.24 103.647 12.64 102.9 13.44C102.154 14.2133 101.78 15.5733 101.78 17.52C101.78 19.4667 102.154 20.84 102.9 21.64C103.647 22.4133 104.874 22.8 106.58 22.8ZM128.575 27.4C126.895 27.4 125.388 27.1067 124.055 26.52C122.748 25.9067 121.722 24.92 120.975 23.56C120.228 22.1733 119.855 20.3467 119.855 18.08C119.855 15.8133 120.268 13.9067 121.095 12.36C121.922 10.8133 123.028 9.64 124.415 8.84C125.802 8.04 127.322 7.64 128.975 7.64C131.055 7.64 132.828 8.12 134.295 9.08V0.039999H139.695V27H135.055L134.735 25.24C133.908 25.96 133.002 26.5067 132.015 26.88C131.055 27.2267 129.908 27.4 128.575 27.4ZM130.055 23.44C131.735 23.44 133.148 22.8667 134.295 21.72V13.08C133.175 12.0933 131.868 11.6 130.375 11.6C127.015 11.6 125.335 13.76 125.335 18.08C125.335 20.1067 125.748 21.5067 126.575 22.28C127.402 23.0533 128.562 23.44 130.055 23.44ZM143.449 27V24.2L153.009 12.52H143.849V8.04H159.769V11.32L150.409 22.84H160.049V27H143.449Z" fill="black"/>
</svg>
