<svg width="45" height="45" viewBox="0 0 45 45" fill="none" xmlns="http://www.w3.org/2000/svg">
<g clip-path="url(#clip0_1030_858)">
<mask id="mask0_1030_858" style="mask-type:luminance" maskUnits="userSpaceOnUse" x="0" y="0" width="45" height="45">
<path d="M45 0H0V45H45V0Z" fill="white"/>
</mask>
<g mask="url(#mask0_1030_858)">
<path d="M10.8442 28.4809L26.0912 13.2339C26.9703 12.3548 28.1626 11.8609 29.4058 11.8609C30.649 11.8609 31.8412 12.3548 32.7203 13.2339C33.5994 14.113 34.0933 15.3052 34.0933 16.5484C34.0933 17.7916 33.5994 18.9839 32.7203 19.863L17.4614 35.1219C16.0549 36.5284 14.1472 37.3186 12.1581 37.3186C10.169 37.3186 8.26132 36.5284 6.8548 35.1219C5.44827 33.7154 4.6581 31.8077 4.6581 29.8186C4.6581 27.8295 5.44827 25.9218 6.8548 24.5153L23.4501 7.91997C25.4466 6.10811 28.0461 5.10441 30.7422 5.10441C33.4382 5.10441 36.0377 6.10811 38.0342 7.91997C39.8457 9.91664 40.8491 12.5161 40.8491 15.212C40.8491 17.9079 39.8457 20.5074 38.0342 22.504L21.4508 39.0875" stroke="black" stroke-width="3" stroke-miterlimit="10"/>
</g>
</g>
<defs>
<clipPath id="clip0_1030_858">
<rect width="45" height="45" fill="white"/>
</clipPath>
</defs>
</svg>
