<svg width="40" height="34" viewBox="0 0 40 34" fill="none" xmlns="http://www.w3.org/2000/svg">
<path d="M15.0364 31.9556C13.8411 31.9556 14.0557 31.4895 13.6266 30.3397L10.1328 18.6553L31.831 4.91992L34.3747 5.60358L32.2601 11.4458L15.0364 31.9556Z" fill="#C8DAEA"/>
<path d="M15.0391 31.9557C15.9585 31.9557 16.3569 31.5207 16.8779 31.0235C17.6747 30.2466 27.9109 20.147 27.9109 20.147L21.6282 18.5933L15.8052 22.3223L15.0391 31.645V31.9557Z" fill="#A9C9DD"/>
<path d="M15.6526 22.4466L30.4859 33.5406C32.1714 34.4728 33.3973 34.0067 33.8264 31.9557L39.8639 3.11764C40.4768 0.600524 38.9138 -0.518192 37.2895 0.22762L1.86139 14.0873C-0.55974 15.0817 -0.529093 16.449 1.43233 17.0395L10.5345 19.9295L31.5892 6.47379C32.5699 5.85228 33.4893 6.19412 32.7537 6.87778L15.6526 22.4466Z" fill="url(#paint0_linear_1029_818)"/>
<defs>
<linearGradient id="paint0_linear_1029_818" x1="24.5375" y1="16.0311" x2="32.3532" y2="28.3638" gradientUnits="userSpaceOnUse">
<stop stop-color="#EFF7FC"/>
<stop offset="1" stop-color="white"/>
</linearGradient>
</defs>
</svg>
