<svg width="43" height="25" viewBox="0 0 43 25" fill="none" xmlns="http://www.w3.org/2000/svg">
<path d="M41.1305 19.499C40.1943 18.3686 39.1304 17.3555 38.1015 16.3758C37.7356 16.0273 37.3574 15.6671 36.9927 15.3089C35.9458 14.2794 35.9077 13.8926 36.7366 12.7232C37.31 11.9171 37.918 11.11 38.506 10.3294C39.0394 9.62122 39.5909 8.88884 40.1195 8.15409L40.2281 8.00302C41.2384 6.59696 42.2832 5.14305 42.8393 3.38913C42.9837 2.9264 43.1353 2.24545 42.7886 1.67605C42.4422 1.10713 41.7702 0.933562 41.2947 0.852491C41.0595 0.812373 40.826 0.806897 40.6093 0.806897L33.9929 0.802135L33.9382 0.801659C32.9378 0.801659 32.2637 1.27582 31.8773 2.25141C31.5085 3.18354 31.1034 4.17615 30.6411 5.11995C29.7211 6.99934 28.5526 9.16396 26.8619 10.9693L26.7904 11.0461C26.5907 11.2619 26.3645 11.5063 26.1992 11.5063C26.1738 11.5063 26.1463 11.5014 26.115 11.4916C25.7648 11.3543 25.5297 10.5016 25.5404 10.1049C25.5405 10.0994 25.5406 10.094 25.5406 10.0885L25.536 2.39688C25.536 2.37021 25.5341 2.34379 25.5307 2.31736C25.3624 1.06701 24.9895 0.288687 23.5808 0.0111897C23.5434 0.00368974 23.5052 0 23.4671 0H16.5873C15.4665 0 14.8489 0.45821 14.2683 1.14404C14.1116 1.32737 13.7854 1.70903 13.9471 2.172C14.1111 2.64188 14.6436 2.74235 14.817 2.77497C15.6777 2.93973 16.1629 3.46925 16.3003 4.39448C16.5402 6.00113 16.5697 7.716 16.3931 9.79134C16.3439 10.3681 16.2465 10.8136 16.086 11.1942C16.0487 11.283 15.9165 11.5729 15.7817 11.573C15.7388 11.573 15.6149 11.5561 15.3892 11.3997C14.8555 11.0319 14.465 10.5072 14.0098 9.85895C12.4612 7.65766 11.1615 5.23269 10.0359 2.44379C9.61847 1.41713 8.83883 0.842373 7.83965 0.825468C6.74175 0.808683 5.74634 0.800587 4.79699 0.800587C3.75969 0.800587 2.79802 0.81023 1.85895 0.829873C1.05506 0.844159 0.499007 1.08654 0.206423 1.55082C-0.0866347 2.01546 -0.0675788 2.62581 0.263117 3.36461C2.91034 9.28396 5.31055 13.5878 8.04583 17.3202C9.96242 19.9318 11.8848 21.7396 14.095 23.0087C16.4236 24.3486 19.0332 25 22.0727 25C22.4172 25 22.7735 24.9915 23.1327 24.9746C24.8989 24.8881 25.5541 24.2451 25.637 22.5155C25.6764 21.6316 25.7725 20.7046 26.2045 19.914C26.4772 19.4159 26.7314 19.4159 26.815 19.4159C26.976 19.4159 27.1755 19.4904 27.3899 19.6301C27.7743 19.8824 28.1039 20.2205 28.3741 20.5159C28.6285 20.7965 28.88 21.0799 29.1318 21.3635C29.675 21.9755 30.2368 22.6082 30.8236 23.2084C32.108 24.5227 33.523 25.1008 35.1482 24.9754H41.2143C41.2272 24.9754 41.2403 24.9749 41.2532 24.9741C41.8576 24.9339 42.3811 24.5967 42.6894 24.0488C43.0714 23.3701 43.0637 22.5043 42.6689 21.7322C42.2209 20.8591 41.6397 20.1131 41.1305 19.499Z" fill="white"/>
</svg>
