<svg width="42" height="42" viewBox="0 0 42 42" fill="none" xmlns="http://www.w3.org/2000/svg">
<path d="M30.4456 25.1216C29.9346 24.859 27.3892 23.6121 26.9157 23.4433C26.4423 23.2652 26.0954 23.1808 25.7532 23.7059C25.4063 24.2262 24.4218 25.3841 24.1125 25.7356C23.8124 26.0825 23.5077 26.1247 22.9968 25.8669C19.9591 24.3481 17.9668 23.1574 15.9651 19.7213C15.4354 18.8071 16.4949 18.8728 17.484 16.8992C17.6527 16.5523 17.5684 16.257 17.4371 15.9945C17.3058 15.732 16.2745 13.1912 15.8433 12.1552C15.426 11.1474 14.9948 11.288 14.6807 11.2692C14.3807 11.2505 14.0385 11.2505 13.6916 11.2505C13.3447 11.2505 12.7868 11.3817 12.3134 11.8927C11.8399 12.4131 10.5039 13.6647 10.5039 16.2054C10.5039 18.7462 12.3556 21.2073 12.6087 21.5542C12.8712 21.9011 16.2511 27.1138 21.4404 29.3593C24.7219 30.775 26.0063 30.8969 27.647 30.6531C28.6455 30.5031 30.7034 29.4062 31.13 28.192C31.5566 26.9826 31.5566 25.9466 31.43 25.731C31.3035 25.5013 30.9566 25.37 30.4456 25.1216Z" fill="white"/>
<path d="M40.3712 12.8632C39.3118 10.3459 37.7929 8.08638 35.8569 6.14565C33.9209 4.2096 31.6614 2.68608 29.1393 1.63134C26.5611 0.548467 23.8234 0 21.0014 0H20.9076C18.0669 0.0140633 15.3152 0.576594 12.7275 1.6829C10.2289 2.75171 7.9882 4.27054 6.07091 6.20659C4.15362 8.14263 2.64885 10.3928 1.60817 12.9007C0.529982 15.4977 -0.0137973 18.2588 0.000265949 21.0996C0.0143292 24.3529 0.792496 27.5827 2.25039 30.4704V37.5958C2.25039 38.7865 3.21607 39.7522 4.40675 39.7522H11.5368C14.4245 41.21 17.6543 41.9882 20.9076 42.0023H21.0061C23.8141 42.0023 26.5376 41.4585 29.1018 40.3944C31.6098 39.349 33.8646 37.8489 35.796 35.9316C37.732 34.0143 39.2555 31.7736 40.3196 29.275C41.4259 26.6874 41.9885 23.9357 42.0025 21.0949C42.0166 18.24 41.4635 15.4696 40.3712 12.8632ZM33.288 33.3956C30.0019 36.6489 25.6423 38.4396 21.0014 38.4396H20.9217C18.095 38.4255 15.287 37.7224 12.8072 36.4004L12.4134 36.1895H5.81308V29.5891L5.60213 29.1953C4.28019 26.7155 3.57702 23.9075 3.56296 21.0808C3.54421 16.4071 5.33024 12.0194 8.60698 8.71453C11.879 5.40967 16.2527 3.58144 20.9264 3.56269H21.0061C23.35 3.56269 25.6235 4.0174 27.7658 4.91745C29.8566 5.79406 31.7317 7.05507 33.3443 8.66766C34.9522 10.2756 36.2179 12.1553 37.0945 14.2461C38.0039 16.4118 38.4586 18.7088 38.4492 21.0808C38.4211 25.7498 36.5882 30.1235 33.288 33.3956Z" fill="white"/>
</svg>
